<?xml version="1.0" encoding="UTF-8" standalone="no"?>
<!DOCTYPE svg PUBLIC "-//W3C//DTD SVG 1.1//EN"
 "http://www.w3.org/Graphics/SVG/1.1/DTD/svg11.dtd">
<!-- Generated by graphviz version 5.0.0 (20220707.1540)
 -->
<!-- Title: dependencies Pages: 1 -->
<svg width="454pt" height="247pt"
 viewBox="0.00 0.00 454.00 246.80" xmlns="http://www.w3.org/2000/svg" xmlns:xlink="http://www.w3.org/1999/xlink">
<g id="graph0" class="graph" transform="scale(1 1) rotate(0) translate(4 242.8)">
<title>dependencies</title>
<polygon fill="white" stroke="transparent" points="-4,4 -4,-242.8 450,-242.8 450,4 -4,4"/>
<text text-anchor="middle" x="223" y="-8.2" font-family="sans-serif" font-size="14.00">dependencies</text>
<g id="clust1" class="cluster">
<title>cluster_NgxJsonSchemaGenModule</title>
<polygon fill="none" stroke="black" stroke-dasharray="1,5" points="8,-32.8 8,-230.8 438,-230.8 438,-32.8 8,-32.8"/>
</g>
<g id="clust2" class="cluster">
<title>cluster_NgxJsonSchemaGenModule_declarations</title>
<polygon fill="none" stroke="black" points="115,-40.8 115,-92.8 329,-92.8 329,-40.8 115,-40.8"/>
</g>
<g id="clust5" class="cluster">
<title>cluster_NgxJsonSchemaGenModule_exports</title>
<polygon fill="none" stroke="black" points="16,-170.8 16,-222.8 430,-222.8 430,-170.8 16,-170.8"/>
</g>
<!-- NgxJsonSchemaGenComponent -->
<g id="node1" class="node">
<title>NgxJsonSchemaGenComponent</title>
<polygon fill="#ffffb3" stroke="black" points="320.98,-84.8 123.02,-84.8 123.02,-48.8 320.98,-48.8 320.98,-84.8"/>
<text text-anchor="middle" x="222" y="-62.6" font-family="Times,serif" font-size="14.00">NgxJsonSchemaGenComponent</text>
</g>
<!-- NgxJsonSchemaGenModule -->
<g id="node2" class="node">
<title>NgxJsonSchemaGenModule</title>
<polygon fill="#8dd3c7" stroke="black" points="310.2,-149.8 307.2,-153.8 286.2,-153.8 283.2,-149.8 133.8,-149.8 133.8,-113.8 310.2,-113.8 310.2,-149.8"/>
<text text-anchor="middle" x="222" y="-127.6" font-family="Times,serif" font-size="14.00">NgxJsonSchemaGenModule</text>
</g>
<!-- NgxJsonSchemaGenComponent&#45;&gt;NgxJsonSchemaGenModule -->
<g id="edge1" class="edge">
<title>NgxJsonSchemaGenComponent&#45;&gt;NgxJsonSchemaGenModule</title>
<path fill="none" stroke="black" d="M222,-84.91C222,-84.91 222,-103.79 222,-103.79"/>
<polygon fill="black" stroke="black" points="218.5,-103.79 222,-113.79 225.5,-103.79 218.5,-103.79"/>
</g>
<!-- NgxJsonSchemaGenComponent  -->
<g id="node3" class="node">
<title>NgxJsonSchemaGenComponent </title>
<polygon fill="#fb8072" stroke="black" points="421.98,-214.8 220.02,-214.8 220.02,-178.8 421.98,-178.8 421.98,-214.8"/>
<text text-anchor="middle" x="321" y="-192.6" font-family="Times,serif" font-size="14.00">NgxJsonSchemaGenComponent </text>
</g>
<!-- NgxJsonSchemaGenModule&#45;&gt;NgxJsonSchemaGenComponent  -->
<g id="edge2" class="edge">
<title>NgxJsonSchemaGenModule&#45;&gt;NgxJsonSchemaGenComponent </title>
<path fill="none" stroke="black" stroke-dasharray="5,2" d="M265.18,-149.91C265.18,-149.91 265.18,-168.79 265.18,-168.79"/>
<polygon fill="black" stroke="black" points="261.68,-168.79 265.18,-178.79 268.68,-168.79 261.68,-168.79"/>
</g>
<!-- NgxJsonSchemaGenService  -->
<g id="node4" class="node">
<title>NgxJsonSchemaGenService </title>
<polygon fill="#fb8072" stroke="black" points="202.13,-214.8 23.87,-214.8 23.87,-178.8 202.13,-178.8 202.13,-214.8"/>
<text text-anchor="middle" x="113" y="-192.6" font-family="Times,serif" font-size="14.00">NgxJsonSchemaGenService </text>
</g>
<!-- NgxJsonSchemaGenModule&#45;&gt;NgxJsonSchemaGenService  -->
<g id="edge3" class="edge">
<title>NgxJsonSchemaGenModule&#45;&gt;NgxJsonSchemaGenService </title>
<path fill="none" stroke="black" stroke-dasharray="5,2" d="M167.98,-149.91C167.98,-149.91 167.98,-168.79 167.98,-168.79"/>
<polygon fill="black" stroke="black" points="164.48,-168.79 167.98,-178.79 171.48,-168.79 164.48,-168.79"/>
</g>
</g>
</svg>
